<?xml version="1.0" standalone="no"?>
<!DOCTYPE svg PUBLIC "-//W3C//DTD SVG 1.1//EN" "http://www.w3.org/Graphics/SVG/1.1/DTD/svg11.dtd" >
<!--
2013-9-30: Created.
-->
<svg>
<metadata>
Created by iconfont
</metadata>
<defs>

<font id="iconfont" horiz-adv-x="1024" >
  <font-face
    font-family="iconfont"
    font-weight="500"
    font-stretch="normal"
    units-per-em="1024"
    ascent="896"
    descent="-128"
  />
    <missing-glyph />
    
    <glyph glyph-name="x" unicode="x" horiz-adv-x="1001"
d="M281 543q-27 -1 -53 -1h-83q-18 0 -36.5 -6t-32.5 -18.5t-23 -32t-9 -45.5v-76h912v41q0 16 -0.5 30t-0.5 18q0 13 -5 29t-17 29.5t-31.5 22.5t-49.5 9h-133v-97h-438v97zM955 310v-52q0 -23 0.5 -52t0.5 -58t-10.5 -47.5t-26 -30t-33 -16t-31.5 -4.5q-14 -1 -29.5 -0.5
t-29.5 0.5h-32l-45 128h-439l-44 -128h-29h-34q-20 0 -45 1q-25 0 -41 9.5t-25.5 23t-13.5 29.5t-4 30v167h911zM163 247q-12 0 -21 -8.5t-9 -21.5t9 -21.5t21 -8.5q13 0 22 8.5t9 21.5t-9 21.5t-22 8.5zM316 123q-8 -26 -14 -48q-5 -19 -10.5 -37t-7.5 -25t-3 -15t1 -14.5
t9.5 -10.5t21.5 -4h37h67h81h80h64h36q23 0 34 12t2 38q-5 13 -9.5 30.5t-9.5 34.5q-5 19 -11 39h-368zM336 498v228q0 11 2.5 23t10 21.5t20.5 15.5t34 6h188q31 0 51.5 -14.5t20.5 -52.5v-227h-327z" />
    

    
    <glyph glyph-name="zhuye" unicode="&#58881;" d="M907.25 413.15l-384 379.75a16 16 0 0 1-22.5 0l-384-379.75A16 16 0 0 1 128 385.77h41.6v-311.5a58.74 58.74 0 0 1 58.67-58.67h68.27a16 16 0 0 1 0 32h-68.27a26.69 26.69 0 0 0-26.67 26.67v327.5a16 16 0 0 1-16 16h-18.66L512 759l345.06-341.23H838.4a16 16 0 0 1-16-16v-327.5a26.69 26.69 0 0 0-26.67-26.67h-68.27a16 16 0 0 1 0-32h68.27a58.74 58.74 0 0 1 58.67 58.67v311.5H896a16 16 0 0 1 11.25 27.37zM499.23 400.31c-14.71-19.5-143.81-192.58-143.81-273.25 0-86.33 70.25-156.58 156.58-156.58s156.58 70.25 156.58 156.58c0 80.67-129.1 253.75-143.81 273.25-6.08 8-19.46 8-25.54 0zM512 2.480000000000018a124.72 124.72 0 0 0-124.58 124.58c0 53.46 80.75 176.08 124.58 236.67 43.83-60.58 124.58-183.17 124.58-236.67A124.72 124.72 0 0 0 512 2.480000000000018zM496 62.39999999999998a16 16 0 0 1 16-16 81.71 81.71 0 0 1 81.6 81.6 16 16 0 0 1-32 0 49.66 49.66 0 0 0-49.6-49.6 16 16 0 0 1-16-16z"  horiz-adv-x="1024" />

    
    <glyph glyph-name="dingdan" unicode="&#58882;" d="M872.1 708.8199999999999a76.86 76.86 0 0 1-50.92-19.23 45.58 45.58 0 0 0-60.11 0 76.86 76.86 0 0 1-50.92 19.23H686a77 77 0 0 1-50.94-19.23 45.64 45.64 0 0 0-60.09 0 77 77 0 0 1-50.94 19.23h-24.1A77 77 0 0 1 449 689.58a45.46 45.46 0 0 0-60.09 0A76.87 76.87 0 0 1 338 708.8199999999999h-24.17a76.86 76.86 0 0 1-50.92-19.23 45.44 45.44 0 0 0-60.11 0 76.86 76.86 0 0 1-50.92 19.23 87.32 87.32 0 0 1-87.21-87.22v-461.87a57.94 57.94 0 0 1 57.87-57.87h63.33V4a15.78 15.78 0 0 1 31.56 0V117.64999999999998a15.79 15.79 0 0 1-15.78 15.78h-79.12a26.33 26.33 0 0 0-26.3 26.3V621.6a55.7 55.7 0 0 0 55.65 55.65 45.36 45.36 0 0 0 30-11.34 77.24 77.24 0 0 1 101.86 0 45.36 45.36 0 0 0 30 11.34H338a45.38 45.38 0 0 0 30-11.34 77.24 77.24 0 0 1 101.86 0 45.36 45.36 0 0 0 30 11.34h24.13a45.46 45.46 0 0 0 30.06-11.34 77.21 77.21 0 0 1 101.84 0A45.46 45.46 0 0 0 686 677.25h24.13a45.46 45.46 0 0 0 30.06-11.34 77.21 77.21 0 0 1 101.84 0 45.36 45.36 0 0 0 30 11.34 55.71 55.71 0 0 0 55.67-55.65v-461.87a26.33 26.33 0 0 0-26.3-26.3h-82.5a15.79 15.79 0 0 1-15.78-15.78v-83.06a15.78 15.78 0 0 1 31.56 0v67.27h66.79a57.94 57.94 0 0 1 57.87 57.87V621.6a87.32 87.32 0 0 1-87.24 87.22zM753.73 133.42999999999995H275.07a15.79 15.79 0 0 1-15.78-15.78v-54.87a15.78 15.78 0 0 1 31.56 0v39.08h462.88a15.78 15.78 0 1 1 0 31.56zM668 44H373.4a15.78 15.78 0 0 1 0-31.56H668a15.78 15.78 0 0 1 0 31.56zM275.07 10.789999999999964A15.79 15.79 0 0 1 259.29-5v-34.93a15.78 15.78 0 1 1 31.56 0V-5a15.79 15.79 0 0 1-15.78 15.79zM427.69 365.29999999999995V491.74a52.67 52.67 0 0 1-52.61 52.61H248.64A52.67 52.67 0 0 1 196 491.74V365.29999999999995a52.67 52.67 0 0 1 52.61-52.61h126.47a52.67 52.67 0 0 1 52.61 52.61z m-200.09 0V491.74a21 21 0 0 0 21 21h126.48a21 21 0 0 0 21-21V365.29999999999995a21 21 0 0 0-21-21H248.64a21 21 0 0 0-21.04 21zM780.6 544.35H517.24a15.78 15.78 0 1 1 0-31.56H780.6a15.78 15.78 0 0 1 0 31.56zM654.21 428.61a15.78 15.78 0 0 1 0 31.56h-137a15.78 15.78 0 1 1 0-31.56z"  horiz-adv-x="1024" />

    
    <glyph glyph-name="gouwuche" unicode="&#58883;" d="M940.52 631.63A58.23 58.23 0 0 1 893.6 655H358.45a16 16 0 0 1 0-32H893.6a26.62 26.62 0 0 0 25.6-34l-26.7-92a350.72 350.72 0 0 0-317.07 2.64C472 553.3199999999999 350 556.06 244.22 509.1l-12.16 131.4-5.51 84.72a15.94 15.94 0 0 1-10.9 14.12l-75.38 25.16a52 52 0 1 1-27.46-100.2l25.81-5.58a16 16 0 1 1 6.75 31.28l-25.81 5.58a20.05 20.05 0 1 0 10.56 38.62l65.19-21.75 4.85-74.45v-0.42l14.2-153.47v-0.15l15.9-171.33c2.63-28.2 24.78-49.18 52.33-52.11a195.31 195.31 0 0 1-68.75-99.39l-5-17a16 16 0 0 1 15.33-20.54H247a76.69 76.69 0 0 1-15-45.38 77.38 77.38 0 0 1 154.75 0 76.69 76.69 0 0 1-15 45.37h386.48a76.66 76.66 0 0 1-15-45.38 77.39 77.39 0 0 1 154.77 0 76.69 76.69 0 0 1-15 45.37h22.83a16 16 0 0 1 0 32H245.58a163.53 163.53 0 0 0 100.9 103.83h466.33a59 59 0 0 1 56.35 42.33L921.2 481l28.8 99a58.21 58.21 0 0 1-9.48 51.63zM354.7 78.16999999999996a45.38 45.38 0 1 0-45.37 45.37 45.44 45.44 0 0 0 45.37-45.37z m511.29 0a45.39 45.39 0 1 0-45.37 45.37A45.44 45.44 0 0 0 866 78.16999999999996z m-53.18 213.21H288.68a26.56 26.56 0 0 0-26.56 24.21L247.28 476a350.62 350.62 0 0 0 313.41-4.81 383.2 383.2 0 0 1 320-15l-42.28-145.56a26.78 26.78 0 0 0-25.6-19.25z"  horiz-adv-x="1024" />

    
    <glyph glyph-name="gerenzhongxin" unicode="&#58884;" d="M369.08 357.28999999999996a16 16 0 0 1 10.73 27.88 197.67 197.67 0 0 0-65.15 146.21c0 108.79 88.52 197.33 197.33 197.33s197.33-88.54 197.33-197.33a197.61 197.61 0 0 0-65.17-146.21 16 16 0 1 1 21.46-23.75 229.68 229.68 0 0 1 75.71 170c0 126.46-102.87 229.33-229.33 229.33S282.67 657.83 282.67 531.37a229.74 229.74 0 0 1 75.69-170 16 16 0 0 1 10.72-4.08zM841.88 110.75C779 237.08000000000004 652.65 315.58000000000004 512 315.58000000000004s-267-78.5-329.92-204.88A60.62 60.62 0 0 1 176 84v-60.75a16 16 0 0 1 16-16h640a16 16 0 0 1 16 16V84a60.55 60.55 0 0 1-6.12 26.75zM816 39.289999999999964H208V84a28.19 28.19 0 0 0 2.77 12.46C268.17 211.91999999999996 383.6 283.58000000000004 512 283.58000000000004s243.83-71.66 301.21-187.08A27.92 27.92 0 0 0 816 84zM564.25 461.83c-36.25-19.71-68.12-19.67-104.33 0a16 16 0 1 1-15.29-28.08c22.58-12.29 45.27-18.5 67.4-18.5s44.85 6.21 67.48 18.46a16 16 0 0 1-15.25 28.17z"  horiz-adv-x="1024" />

    
    <glyph glyph-name="shouhuodizhi" unicode="&#58890;" d="M512 789.333333a341.333333 341.333333 0 0 1-341.333333-341.333333c0-231.253333 315.733333-456.106667 328.96-465.493333a21.333333 21.333333 0 0 1 24.746666 0 1213.013333 1213.013333 0 0 1 141.653334 120.746666 21.333333 21.333333 0 1 1-30.293334 30.293334 1237.333333 1237.333333 0 0 0-123.733333-107.093334c-57.6 42.666667-298.666667 235.946667-298.666667 421.546667a298.666667 298.666667 0 0 0 597.333334 0c0-73.386667-37.546667-156.16-111.786667-245.333333a21.333333 21.333333 0 0 1 32.853333-27.306667C810.666667 272.64 853.333333 364.373333 853.333333 448a341.333333 341.333333 0 0 1-341.333333 341.333333zM380.586667 497.066667a21.333333 21.333333 0 0 1-25.173334-16.64 162.986667 162.986667 0 0 1-3.413333-32A160 160 0 1 1 456.96 597.333333a21.333333 21.333333 0 0 1 14.506667-40.106666 116.053333 116.053333 0 0 0 40.533333 8.106666 117.333333 117.333333 0 1 0-114.773333-93.44 21.333333 21.333333 0 0 1-16.64 25.173334z"  horiz-adv-x="1024" />

    
    <glyph glyph-name="qianbao" unicode="&#58893;" d="M867.413333 350.72h-213.333333a21.333333 21.333333 0 0 1 0-42.666667h192v-226.986666a26.026667 26.026667 0 0 0-26.026667-26.026667H203.946667a26.026667 26.026667 0 0 0-26.026667 26.026667v426.666666a26.026667 26.026667 0 0 0 26.026667 26.026667h13.653333a21.333333 21.333333 0 1 1 0 42.666667h-13.653333a68.693333 68.693333 0 0 1-68.693334-69.12v-426.666667a68.693333 68.693333 0 0 1 68.693334-68.693333h616.106666a68.693333 68.693333 0 0 1 68.693334 68.693333v248.746667a21.333333 21.333333 0 0 1-21.333334 21.333333zM820.053333 576H315.733333a21.333333 21.333333 0 0 1 0-42.666667h504.32a26.026667 26.026667 0 0 0 26.026667-26.026666v-14.08h-192a92.586667 92.586667 0 0 1-92.586667-92.586667 21.333333 21.333333 0 0 1 42.666667 0 49.92 49.92 0 0 0 49.92 49.92h213.333333a21.333333 21.333333 0 0 1 21.333334 21.333333v35.413334a68.693333 68.693333 0 0 1-68.693334 68.693333zM315.733333 615.253333h392.533334a21.333333 21.333333 0 0 1 20.48 24.746667l-26.453334 98.133333a21.76 21.76 0 0 1-26.026666 14.933334L310.186667 657.066667a21.333333 21.333333 0 0 1 5.546666-42.666667z m351.146667 93.013334l13.653333-50.773334H477.866667zM651.946667 379.30666699999995h53.76a21.333333 21.333333 0 0 1 0 42.666666h-53.76a21.333333 21.333333 0 1 1 0-42.666666z"  horiz-adv-x="1024" />

    
    <glyph glyph-name="shoucang" unicode="&#58894;" d="M927.146667 499.2h-301.653334l-93.013333 287.146667a22.186667 22.186667 0 0 1-42.666667 0l-55.893333-170.666667a21.333333 21.333333 0 1 1 42.666667-13.226667L512 710.4 589.653333 469.333333a21.333333 21.333333 0 0 1 20.48-14.933333h251.733334L296.106667 45.653332999999975l77.653333 239.36a21.333333 21.333333 0 0 1-7.68 23.893334L162.56 456.533333H413.866667a21.333333 21.333333 0 0 1 20.48 14.933334l8.533333 26.453333a21.333333 21.333333 0 1 1-42.666667 13.226667l-3.84-11.52H96.853333a21.333333 21.333333 0 0 1-12.373333-38.4l244.053333-177.92-93.44-286.72a21.333333 21.333333 0 0 1 32.853334-23.893334L938.666667 460.8a21.333333 21.333333 0 0 1-12.373334 38.4zM718.933333 183.89333299999998a21.333333 21.333333 0 0 1-19.2-2.986666l-91.306666-66.56a21.333333 21.333333 0 0 1 0-34.56l147.626666-107.52a21.333333 21.333333 0 0 1 32.853334 23.893333L732.586667 170.66666699999996a21.333333 21.333333 0 0 1-13.653334 13.226666z m-61.44-85.333333l42.666667 32 26.88-85.333333z"  horiz-adv-x="1024" />

    
    <glyph glyph-name="shezhi" unicode="&#58895;" d="M913.066667 452.266667l-78.933334 23.893333a341.333333 341.333333 0 0 1-80.64 143.36l17.92 77.653333a21.333333 21.333333 0 0 1-10.24 23.466667L678.826667 768a21.333333 21.333333 0 0 1-25.173334-2.986667L597.333333 713.8133330000001a341.333333 341.333333 0 0 1-177.066666 3.413334L370.773333 765.44a21.333333 21.333333 0 0 1-25.6 2.56L262.4 720.64a21.333333 21.333333 0 0 1-10.24-23.466667l17.92-75.946666a21.333333 21.333333 0 1 1 42.666667 9.813333L298.666667 691.626667 352.853333 725.333333 401.066667 678.4a21.333333 21.333333 0 0 1 20.48-5.12A298.666667 298.666667 0 0 0 597.333333 669.866667a21.333333 21.333333 0 0 1 21.333334 4.693333L671.146667 725.333333l55.466666-32-17.066666-73.813333a21.333333 21.333333 0 0 1 5.973333-20.053333 298.666667 298.666667 0 0 0 80.64-143.786667 21.333333 21.333333 0 0 1 14.506667-15.36l75.093333-22.613333v-64l-75.093333-24.32a21.333333 21.333333 0 0 1-14.506667-15.36 298.666667 298.666667 0 0 0-81.066667-143.36 21.333333 21.333333 0 0 1-5.973333-20.053334l17.066667-73.813333-55.466667-32-52.053333 48.64a21.333333 21.333333 0 0 1-21.333334 4.693333 298.666667 298.666667 0 0 0-176.213333-3.413333 21.333333 21.333333 0 0 1-20.48-5.12L352.853333 42.66666699999996 298.666667 76.373333l14.08 60.586667a21.333333 21.333333 0 0 1-6.826667 20.906667 298.666667 298.666667 0 0 0-95.146667 160.853333 21.333333 21.333333 0 0 1-14.506666 15.786667l-56.746667 17.066666v64l56.746667 17.066667a21.333333 21.333333 0 0 1 14.506666 15.786667A298.666667 298.666667 0 0 0 247.466667 541.866667a21.333333 21.333333 0 1 1-34.133334 22.613333A341.333333 341.333333 0 0 1 170.666667 469.333333l-59.733334-17.066666a21.333333 21.333333 0 0 1-14.933333-20.48v-95.573334a21.333333 21.333333 0 0 1 14.933333-20.48L170.666667 298.66666699999996a341.333333 341.333333 0 0 1 96.426666-162.986667l-14.933333-64a21.333333 21.333333 0 0 1 10.24-23.466667L345.173333 0a21.333333 21.333333 0 0 1 25.173334 2.986667l51.2 47.786666a341.333333 341.333333 0 0 1 175.786666 3.413334l55.04-51.2a21.333333 21.333333 0 0 1 25.173334-2.986667l82.773333 47.786667a21.333333 21.333333 0 0 1 10.24 23.466666l-17.92 77.653334a341.333333 341.333333 0 0 1 80.64 143.36l78.933333 23.893333a21.333333 21.333333 0 0 1 14.933334 20.48v95.146667a21.333333 21.333333 0 0 1-14.08 20.48zM608.853333 318.29333299999996a21.333333 21.333333 0 0 1 39.68-10.666666l37.546667 65.28a21.333333 21.333333 0 0 1 0 21.333333L608.426667 529.066667a21.333333 21.333333 0 0 1-18.346667 10.666666h-155.733333a21.333333 21.333333 0 0 1-18.346667-10.666666l-78.08-134.826667a21.333333 21.333333 0 0 1 0-21.333333l77.653333-134.826667a21.333333 21.333333 0 0 1 18.346667-10.666667h115.2a21.333333 21.333333 0 0 1 0 42.666667h-102.826667L381.013333 384l65.706667 113.493333h130.986667L642.986667 384l-31.573334-54.613333a21.333333 21.333333 0 0 1-2.56-11.093334z"  horiz-adv-x="1024" />

    
    <glyph glyph-name="qingkong" unicode="&#58896;" d="M738.27 580.1l-30.17 30.17L512 414.17l-196.1 196.1-30.17-30.17L481.83 384l-196.1-196.1 30.17-30.17L512 353.83l196.1-196.1 30.17 30.17L542.17 384l196.1 196.1z"  horiz-adv-x="1024" />

    
    <glyph glyph-name="xianshimima" unicode="&#58897;" d="M512 682.67c198.54 0 374.46-116.53 446.38-290.52a21.33 21.33 0 0 0 0-16.3C886.46 201.86 710.54 85.33 512 85.33S137.54 201.86 65.62 375.85a21.33 21.33 0 0 0 0 16.3C137.54 566.14 313.46 682.67 512 682.67z m0-42.67c-178.21 0-336.1-102.55-403.48-256C175.9 230.55 333.79 128 512 128s336.1 102.55 403.48 256C848.1 537.45 690.21 640 512 640zM512 234.67A149.33 149.33 0 1 0 661.33 384 149.33 149.33 0 0 0 512 234.67z m0 42.67A106.67 106.67 0 1 1 405.33 384 106.67 106.67 0 0 1 512 277.33z"  horiz-adv-x="1024" />

    
    <glyph glyph-name="yincangmima" unicode="&#58898;" d="M228.41 697.73a21.33 21.33 0 0 1-30.17-30.17l56.46-56.46c-83.6-50.76-150.66-126-189.08-219a21.33 21.33 0 0 1 0-16.33C138.56 199.36 313.78 85.32 512 85.32a496.64 496.64 0 0 1 217.89 50.61l65.69-65.69a21.33 21.33 0 1 1 30.17 30.17z m194.68-255l147.63-147.64a106.5 106.5 0 0 0-147.63 147.63zM512 128c-177.8 0-335.17 100.15-403.49 256 36.81 84 100.12 150.76 178 195.34L392.81 473c-18.68-24.93-30.15-55.54-30.15-89 0-82.33 67-149.33 149.33-149.33 33.47 0 64.08 11.47 89 30.15l96.21-96.21C640.44 143.1 578 128 512 128zM958.37 392.15C885.43 568.61 710.2 682.65 512 682.65a502.15 502.15 0 0 1-157.66-25.45l34.22-34.2A461 461 0 0 0 512 640c177.79 0 335.17-100.17 403.48-256-28.33-64.63-72.59-118.93-126.66-161.23l30.88-30.88C879.76 240 928 302.38 958.37 375.82a21.33 21.33 0 0 1 0 16.33zM617.66 393.89l40.47-40.47a149.27 149.27 0 0 1 3.2 30.56c0 82.33-67 149.33-149.33 149.33a149.19 149.19 0 0 1-30.57-3.2l40.47-40.47a106.11 106.11 0 0 0 95.76-95.75z"  horiz-adv-x="1024" />

    
    <glyph glyph-name="tixian" unicode="&#58900;" d="M888.746667 471.466667v35.413333a68.693333 68.693333 0 0 1-68.693334 69.12H204.373333a68.693333 68.693333 0 0 1-69.12-69.12v-174.933333a21.333333 21.333333 0 0 1 42.666667 0v174.933333a26.026667 26.026667 0 0 0 26.026667 26.026667h616.106666a26.026667 26.026667 0 0 0 26.026667-26.026667v-14.08h-192a92.586667 92.586667 0 0 1 0-184.746667h192v-227.413333a26.026667 26.026667 0 0 0-26.026667-26.026667h-228.693333a26.026667 26.026667 0 0 0-26.026667 26.026667v123.733333a21.333333 21.333333 0 0 1-21.333333 21.333334H208.64L256 271.36a21.333333 21.333333 0 0 1-30.293333 30.293333l-84.053334-82.773333a21.333333 21.333333 0 0 1 0-30.293333l82.773334-82.773334a21.333333 21.333333 0 0 1 31.573333 30.293334l-46.933333 46.933333h314.453333v-101.973333a68.693333 68.693333 0 0 1 68.693333-68.693334h228.693334a68.693333 68.693333 0 0 1 68.693333 68.693334v248.32a21.333333 21.333333 0 0 1-21.333333 21.333333h-213.333334a49.92 49.92 0 0 0 0 99.413333h213.333334a21.333333 21.333333 0 0 1 20.48 21.333334zM315.733333 615.253333h392.533334a21.333333 21.333333 0 0 1 20.48 24.746667l-26.453334 98.133333a21.333333 21.333333 0 0 1-26.026666 14.933334L310.186667 657.066667a21.333333 21.333333 0 0 1 5.546666-42.666667z m351.146667 93.013334l13.653333-50.773334H477.866667zM651.946667 421.973333a21.333333 21.333333 0 1 1 0-42.666666h53.76a21.333333 21.333333 0 0 1 0 42.666666z"  horiz-adv-x="1024" />

    
    <glyph glyph-name="chongzhi" unicode="&#58901;" d="M888.746667 471.466667v35.84a68.693333 68.693333 0 0 1-68.693334 68.693333H203.946667a68.693333 68.693333 0 0 1-68.693334-68.693333v-174.933334a21.333333 21.333333 0 0 1 42.666667 0v174.933334a26.026667 26.026667 0 0 0 26.026667 26.026666h616.106666a26.026667 26.026667 0 0 0 26.026667-26.026666v-14.08h-192a92.586667 92.586667 0 0 1 0-184.746667h192v-227.413333a26.026667 26.026667 0 0 0-26.026667-26.026667H203.946667a26.026667 26.026667 0 0 0-26.026667 26.026667v101.973333h311.466667l-46.933334-46.933333a21.333333 21.333333 0 1 1 30.293334-30.293334L554.666667 188.58666700000003a21.333333 21.333333 0 0 1 6.4 14.933333 20.906667 20.906667 0 0 1-7.68 15.786667l-81.493334 81.493333a21.333333 21.333333 0 0 1-30.293333-30.293333l46.08-46.08H156.586667a21.333333 21.333333 0 0 1-21.333334-21.333334v-122.026666a68.693333 68.693333 0 0 1 68.693334-68.693334h616.106666a68.693333 68.693333 0 0 1 68.693334 68.693334v248.32a21.333333 21.333333 0 0 1-21.333334 21.333333h-213.333333a49.92 49.92 0 0 0 0 99.413333h213.333333a21.333333 21.333333 0 0 1 21.333334 21.333334zM315.733333 615.253333h392.533334a21.333333 21.333333 0 0 1 20.48 24.746667l-26.453334 98.133333a21.333333 21.333333 0 0 1-26.026666 14.933334L310.186667 657.066667a21.333333 21.333333 0 0 1 5.546666-42.666667z m351.146667 93.013334l13.653333-50.773334H477.866667zM651.946667 421.973333a21.333333 21.333333 0 0 1 0-42.666666h53.76a21.333333 21.333333 0 0 1 0 42.666666z"  horiz-adv-x="1024" />

    
    <glyph glyph-name="shaixuan" unicode="&#58902;" d="M579 49.88a21.32 21.32 0 0 0-21.33 21.33V490.55a21.3 21.3 0 0 0 6.85 15.67l183.33 169.24H276.14l183.27-169.21a21.3 21.3 0 0 0 6.85-15.67v-285.33a21.33 21.33 0 0 0-42.67 0v276L207.1 681.13a21.33 21.33 0 0 0 14.48 37h580.83a21.33 21.33 0 0 0 14.48-37L600.33 481.21v-410A21.32 21.32 0 0 0 579 49.88z"  horiz-adv-x="1024" />

    
    <glyph glyph-name="yajin" unicode="&#58903;" d="M270.506667 661.333333a21.333333 21.333333 0 0 1 13.226666 4.693334 366.933333 366.933333 0 0 0 42.666667 30.293333 21.333333 21.333333 0 0 1-21.76 36.693333A410.453333 410.453333 0 0 1 256 699.3066670000001a21.333333 21.333333 0 0 1 13.226667-37.973334zM512 789.333333a404.053333 404.053333 0 0 1-124.586667-21.333333 21.333333 21.333333 0 0 1 13.226667-42.666667 362.666667 362.666667 0 1 0-192-146.346666 21.333333 21.333333 0 0 1-35.84 23.466666A405.333333 405.333333 0 1 1 512 789.333333zM384 351.57333300000005a21.333333 21.333333 0 0 1 0-42.666666h106.666667v-85.333334a21.333333 21.333333 0 0 1 42.666666 0v85.333334H640a21.333333 21.333333 0 0 1 0 42.666666h-106.666667v64H640a21.333333 21.333333 0 0 1 0 42.666667H384a21.333333 21.333333 0 0 1 0-42.666667h106.666667v-64zM578.986667 484.266667l45.226666 45.226666a21.333333 21.333333 0 0 1-30.293333 30.293334l-44.8-45.226667a21.333333 21.333333 0 0 1 30.293333-30.293333zM474.88 484.266667a21.333333 21.333333 0 0 1 0 30.293333l-45.226667 45.226667a21.333333 21.333333 0 0 1-30.293333-30.293334l45.226667-45.226666a21.333333 21.333333 0 0 1 30.293333 0z"  horiz-adv-x="1024" />

    
    <glyph glyph-name="daojishi" unicode="&#58904;" d="M752.63 551.8l40.83 40.83a21.33 21.33 0 0 1-30.17 30.17l-40.84-40.84a322.29 322.29 0 0 1-65.78 44.93 21.35 21.35 0 1 1-19.33-38.08 276.2 276.2 0 0 0 152-247.46C789.33 188.42 664.92 64 512 64S234.67 188.42 234.67 341.33 359.08 618.67 512 618.67A21.32 21.32 0 0 1 533.33 640v64h64a21.33 21.33 0 1 1 0 42.67H426.67a21.33 21.33 0 1 1 0-42.67h64v-43.75C324.16 649.2 192 510.59 192 341.33c0-176.46 143.54-320 320-320s320 143.54 320 320a318.36 318.36 0 0 1-79.37 210.47zM512 490.67a21.32 21.32 0 0 1-21.33-21.33v-128a21.33 21.33 0 0 1 42.67 0v128A21.32 21.32 0 0 1 512 490.67z"  horiz-adv-x="1024" />

    
    <glyph glyph-name="sousuo" unicode="&#58906;" d="M498.773333 117.33333300000004a290.133333 290.133333 0 1 0 289.706667 290.133334 290.133333 290.133333 0 0 0-289.706667-290.133334z m0 537.173334a247.466667 247.466667 0 1 1 247.04-247.04 247.466667 247.466667 0 0 1-247.04 247.04zM788.053333 88.746667a21.333333 21.333333 0 0 0-14.933333 6.4l-103.253333 103.253333a21.333333 21.333333 0 1 0 30.293333 30.293333l103.253333-103.253333a21.333333 21.333333 0 0 0-14.933333-36.266667zM341.333333 448.426667a21.333333 21.333333 0 0 0-20.053333 29.013333A193.28 193.28 0 0 0 426.666667 586.666667a21.333333 21.333333 0 0 0 15.786666-39.68 150.613333 150.613333 0 0 1-85.333333-85.333334 21.333333 21.333333 0 0 0-15.786667-13.226666z"  horiz-adv-x="1024" />

    
    <glyph glyph-name="guanlidizhi" unicode="&#58907;" d="M197.546667 448a298.666667 298.666667 0 1 0 597.333333 0 21.333333 21.333333 0 0 1 42.666667 0 341.333333 341.333333 0 1 1-682.666667 0c0-231.68 315.733333-456.106667 328.96-465.493333a21.333333 21.333333 0 0 1 29.866667 5.12 21.333333 21.333333 0 0 1-5.12 29.866666c-2.986667 2.133333-311.04 221.013333-311.04 430.506667zM364.8 497.066667a21.333333 21.333333 0 0 1-23.466667-17.066667 163.413333 163.413333 0 0 1-3.413333-32A160 160 0 1 1 441.173333 597.333333a21.333333 21.333333 0 0 1 14.506667-40.106666 116.053333 116.053333 0 0 0 40.533333 7.253333 116.906667 116.906667 0 1 0-114.773333-92.586667 21.333333 21.333333 0 0 1-16.64 25.173334zM858.453333 355.41333299999997l-71.253333 42.666667a20.48 20.48 0 0 1-8.106667 2.56H763.733333a20.906667 20.906667 0 0 1-5.546666-6.4l-42.666667-71.253333L597.333333 108.373333a21.333333 21.333333 0 0 1-2.986666-10.666666v-82.346667a21.333333 21.333333 0 0 1 32-18.346667l71.253333 42.666667a21.333333 21.333333 0 0 1 7.68 7.68l161.706667 279.893333a21.333333 21.333333 0 0 1-8.533334 28.16z m-188.16-282.88l-34.133333-19.626666v39.68l107.093333 185.173333 34.56-19.626667z m128 222.293334l-34.56 19.626666 19.626667 34.56 34.56-19.626666z"  horiz-adv-x="1024" />

    
    <glyph glyph-name="dadianhua" unicode="&#58908;" d="M870.4 194.986667l-110.933333 93.013333a57.6 57.6 0 0 1-81.066667-7.253333l-38.4-44.8c-33.28-28.16-114.346667 46.08-170.666667 104.106666-11.946667 11.946667-23.04 23.466667-33.706666 34.986667a21.333333 21.333333 0 0 1-31.146667-29.013333c11.093333-11.946667 22.613333-23.893333 34.986667-35.84 78.933333-78.933333 170.666667-159.146667 232.96-104.106667l40.106666 47.786667a14.506667 14.506667 0 0 0 10.24 5.12 14.08 14.08 0 0 0 11.093334-3.413334l110.933333-93.013333a14.933333 14.933333 0 0 0 0-20.906667L797.013333 85.33333300000004c-51.626667-51.626667-128-38.826667-181.76-19.2a730.88 730.88 0 0 0-249.173333 170.666667 730.88 730.88 0 0 0-170.666667 249.173333c-19.626667 54.613333-32.426667 130.133333 17.493334 180.48L269.653333 716.8a15.36 15.36 0 0 0 10.666667 3.413333 14.933333 14.933333 0 0 0 10.24-5.12L384 604.1600000000001a14.933333 14.933333 0 0 0 0-20.906667l-50.346667-42.666666a81.92 81.92 0 0 1-3.413333-95.146667 21.333333 21.333333 0 1 1 38.4 18.773333c-16.213333 32.853333-6.4 42.666667-5.12 46.506667l45.653333 39.68a57.6 57.6 0 0 1 7.253334 81.066667L322.986667 742.4a57.6 57.6 0 0 1-81.066667 7.253333L181.76 698.88C128 645.5466670000001 118.613333 567.4666669999999 152.746667 472.746667a773.12 773.12 0 0 1 182.613333-264.96 773.973333 773.973333 0 0 1 264.96-182.613334 302.08 302.08 0 0 1 102.4-20.053333 170.666667 170.666667 0 0 1 125.44 50.346667l49.493333 58.88a57.6 57.6 0 0 1-7.253333 81.066666zM625.066667 604.1600000000001h175.36a21.333333 21.333333 0 0 1 14.933333 35.84L768 689.066667a21.333333 21.333333 0 0 1-30.293333-30.293334l12.373333-12.373333h-125.013333a21.333333 21.333333 0 0 1 0-42.666667zM622.08 486.4a21.333333 21.333333 0 0 1 30.293333 30.293333L640 529.066667h124.16a21.333333 21.333333 0 0 1 0 42.666666H588.8a21.333333 21.333333 0 0 1-14.933333-36.266666z"  horiz-adv-x="1024" />

    
    <glyph glyph-name="faduanxin" unicode="&#58909;" d="M369.493333 198.826667a64 64 0 0 1-42.666666 15.36H208.213333A59.306667 59.306667 0 0 0 149.333333 273.066667V624.213333A59.306667 59.306667 0 0 0 208.213333 682.666667h479.573334a21.333333 21.333333 0 1 1 0 42.666666H208.213333A101.973333 101.973333 0 0 1 106.666667 624.213333v-351.146666A101.973333 101.973333 0 0 1 208.213333 170.666667h119.893334a21.333333 21.333333 0 0 0 13.226666-4.266667l32-27.306667a21.333333 21.333333 0 0 1 28.16 31.573334zM896 517.546667a21.333333 21.333333 0 0 1-21.333333-21.333334v-223.146666a59.306667 59.306667 0 0 0-58.88-59.733334h-119.893334a64 64 0 0 1-42.666666-15.36l-128-109.226666a21.333333 21.333333 0 0 0-27.733334 0 21.333333 21.333333 0 1 1-27.733333-32.426667 63.573333 63.573333 0 0 1 82.773333 0l128 109.226667a21.333333 21.333333 0 0 0 13.653334 5.12h119.893333a101.973333 101.973333 0 0 1 103.253333 102.4V496.213333a21.333333 21.333333 0 0 1-21.333333 21.333334zM512 445.013333m-42.666667 0a42.666667 42.666667 0 1 1 85.333334 0 42.666667 42.666667 0 1 1-85.333334 0ZM298.666667 445.013333m-42.666667 0a42.666667 42.666667 0 1 1 85.333333 0 42.666667 42.666667 0 1 1-85.333333 0ZM725.333333 445.013333m-42.666666 0a42.666667 42.666667 0 1 1 85.333333 0 42.666667 42.666667 0 1 1-85.333333 0ZM938.666667 682.666667h-64V747.52a21.333333 21.333333 0 0 1-42.666667 0V682.666667H768a21.333333 21.333333 0 0 1 0-42.666667h64v-64a21.333333 21.333333 0 1 1 42.666667 0V640H938.666667a21.333333 21.333333 0 0 1 0 42.666667z"  horiz-adv-x="1024" />

    
    <glyph glyph-name="ditu" unicode="&#58910;" d="M170.666667 448a298.666667 298.666667 0 0 0 597.333333 0 21.333333 21.333333 0 0 1 42.666667 0 341.333333 341.333333 0 0 1-682.666667 0c0-231.68 315.733333-456.106667 328.96-465.493333a21.333333 21.333333 0 0 1 29.866667 5.12 21.333333 21.333333 0 0 1-5.12 29.866666C480 19.626667 170.666667 238.506667 170.666667 448zM341.333333 497.066667a21.333333 21.333333 0 0 1-25.173333-16.64 163.413333 163.413333 0 0 1-3.413333-32A160 160 0 1 1 416 597.333333a21.333333 21.333333 0 0 1 14.506667-40.106666 116.053333 116.053333 0 0 0 38.826666 8.106666 116.906667 116.906667 0 1 0-113.493333-93.44 21.333333 21.333333 0 0 1-14.506667 25.173334zM872.96 177.92h-34.56a131.84 131.84 0 0 1-108.8 108.8v26.453333a21.333333 21.333333 0 1 1-42.666667 0v-26.453333a131.84 131.84 0 0 1-108.8-108.8h-26.453333a21.333333 21.333333 0 0 1 0-42.666667h26.453333a131.84 131.84 0 0 1 108.8-108.8V0a21.333333 21.333333 0 0 1 42.666667 0v26.453333a131.84 131.84 0 0 1 108.8 108.8h34.56a21.333333 21.333333 0 0 1 0 42.666667z m-164.693333-110.933333a89.6 89.6 0 1 0 89.6 89.6 89.6 89.6 0 0 0-89.6-89.6zM708.266667 156.586667m-42.666667 0a42.666667 42.666667 0 1 1 85.333333 0 42.666667 42.666667 0 1 1-85.333333 0Z"  horiz-adv-x="1024" />

    
    <glyph glyph-name="sousuoyinyongshuix" unicode="&#58912;" d="M525.226667 697.173333A289.28 289.28 0 0 1 309.76 213.333333l-88.746667-87.893333a21.333333 21.333333 0 1 1 30.293334-30.293333L341.333333 184.32a288.426667 288.426667 0 0 1 185.173334-66.986667 21.333333 21.333333 0 0 1 0 42.666667 247.04 247.04 0 1 0 240.213333 188.16 21.333333 21.333333 0 0 1 42.666667-10.24 290.133333 290.133333 0 0 1-281.6 359.253333zM664.746667 462.08a21.333333 21.333333 0 0 1 39.68 15.786667A193.706667 193.706667 0 0 1 597.333333 586.666667a21.333333 21.333333 0 0 1-15.786666-39.68 150.613333 150.613333 0 0 0 83.2-84.906667zM668.586667 358.4c-14.933333-17.92-90.453333-110.933333-90.453334-162.986667a106.666667 106.666667 0 0 1 213.333334 0c0 52.053333-75.093333 145.066667-90.453334 162.986667a22.186667 22.186667 0 0 1-32.426666 0z m14.08-226.986667a64 64 0 0 0-64 64 308.906667 308.906667 0 0 0 64 115.2 308.053333 308.053333 0 0 0 64-115.2 64 64 0 0 0-64-64z"  horiz-adv-x="1024" />

    
    <glyph glyph-name="sousuoguanzhux" unicode="&#58913;" d="M525.226667 697.173333A289.28 289.28 0 0 1 309.76 213.333333l-88.746667-87.893333a21.333333 21.333333 0 1 1 30.293334-30.293333L341.333333 184.32a288.426667 288.426667 0 0 1 185.173334-66.986667 21.333333 21.333333 0 0 1 0 42.666667 247.04 247.04 0 1 0 240.213333 188.16 21.333333 21.333333 0 1 1 42.666667-10.24 290.133333 290.133333 0 0 1-281.6 359.253333zM664.746667 462.08a21.333333 21.333333 0 0 1 39.68 15.786667A193.28 193.28 0 0 1 597.333333 586.666667a21.333333 21.333333 0 0 1-15.786666-39.68 150.613333 150.613333 0 0 0 83.2-84.906667zM725.333333 291.413333a67.413333 67.413333 0 0 1-42.666666-14.933333 67.413333 67.413333 0 0 1-42.666667 14.933333 61.44 61.44 0 0 1-64-58.88c0-52.906667 78.08-116.48 93.44-128a21.333333 21.333333 0 0 1 26.453333 0c15.786667 12.373333 93.44 75.946667 93.44 128a61.44 61.44 0 0 1-64 58.88z m-42.666666-142.933333c-29.44 25.6-64 63.573333-64 85.333333 0 8.533333 9.813333 15.786667 21.333333 15.786667a23.466667 23.466667 0 0 0 18.773333-8.533333 29.866667 29.866667 0 0 1 23.893334-11.946667 29.866667 29.866667 0 0 1 23.893333 11.946667c9.813333 12.8 40.106667 6.826667 40.106667-7.68s-32.426667-59.306667-64-84.906667z"  horiz-adv-x="1024" />

    
    <glyph glyph-name="jinzhisousuo_x" unicode="&#58914;" d="M525.226667 697.173333A289.28 289.28 0 0 1 309.76 213.333333l-88.746667-87.893333a21.333333 21.333333 0 1 1 30.293334-30.293333L341.333333 184.32a289.706667 289.706667 0 1 1 185.173334 512z m0-537.173333a247.466667 247.466667 0 1 0 247.04 247.04 247.466667 247.466667 0 0 0-247.04-247.04zM625.92 507.733333a21.333333 21.333333 0 0 1-30.293333 0l-70.4-70.4-69.973334 70.4a21.333333 21.333333 0 0 1-30.293333-30.293333l70.4-70.4L426.666667 337.066667a21.333333 21.333333 0 1 1 30.293333-30.293334l70.4 70.4L597.333333 306.773333a21.333333 21.333333 0 0 1 30.293334 30.293334L554.666667 407.04l70.4 70.4a21.333333 21.333333 0 0 1 0.853333 30.293333z"  horiz-adv-x="1024" />

    
    <glyph glyph-name="sousuoqianjinx" unicode="&#58915;" d="M597.333333 586.666667a21.333333 21.333333 0 0 1-15.786666-39.68 150.613333 150.613333 0 0 0 85.333333-85.333334 21.333333 21.333333 0 0 1 39.68 15.786667A193.706667 193.706667 0 0 1 597.333333 586.666667zM813.653333 146.773333a21.333333 21.333333 0 0 1-2.986666 6.826667L748.8 213.333333a21.333333 21.333333 0 1 1-30.293333-30.293333l23.893333-23.893333h-217.173333a247.04 247.04 0 1 0 227.84 151.04 21.333333 21.333333 0 0 1 39.253333-16.64 287.146667 287.146667 0 0 1 23.04 113.066666A290.133333 290.133333 0 1 1 309.76 213.333333l-88.746667-87.893333a21.333333 21.333333 0 1 1 30.293334-30.293333L341.333333 184.32a288.426667 288.426667 0 0 1 185.173334-66.986667h215.893333l-23.893333-23.893333a21.333333 21.333333 0 1 1 30.293333-30.293333L810.666667 123.306667a21.333333 21.333333 0 0 1 4.693333 23.466666z"  horiz-adv-x="1024" />

    
    <glyph glyph-name="zhongxinsousuox" unicode="&#58916;" d="M704.426667 477.44A193.28 193.28 0 0 1 597.333333 586.666667a21.333333 21.333333 0 1 1-15.786666-39.68 150.613333 150.613333 0 0 0 85.333333-85.333334 21.333333 21.333333 0 0 1 39.68 15.786667zM798.293333 246.186667l-34.133333-2.986667a290.133333 290.133333 0 1 1-454.4-29.866667l-88.746667-87.893333a21.333333 21.333333 0 1 1 30.293334-30.293333L341.333333 184.32a288.426667 288.426667 0 0 1 185.173334-66.986667 21.333333 21.333333 0 0 1 0 42.666667 247.466667 247.466667 0 1 0 206.506666 111.36l-2.986666 32.853333a21.333333 21.333333 0 1 1-42.666667-3.84l7.253333-85.333333a21.76 21.76 0 0 1 0-2.986667 20.053333 20.053333 0 0 1 0-4.266666l2.56-3.413334v-2.56l3.84-2.133333a21.333333 21.333333 0 0 1 7.68 0l85.333334 7.253333a21.333333 21.333333 0 0 1 19.2 23.04 21.76 21.76 0 0 1-14.933334 16.213334z"  horiz-adv-x="1024" />

    
    <glyph glyph-name="jinzhisousuox" unicode="&#58917;" d="M760.32 270.933333a21.333333 21.333333 0 0 1-30.293333 0L682.666667 225.706667l-42.666667 45.226666a21.333333 21.333333 0 0 1-30.293333-30.293333l45.226666-45.226667-45.226666-45.226666a21.333333 21.333333 0 1 1 30.293333-30.293334l42.666667 45.653334 45.226666-45.226667a21.333333 21.333333 0 0 1 30.293334 30.293333l-45.226667 45.226667 45.226667 45.226667a21.333333 21.333333 0 0 1 2.133333 29.866666zM525.226667 697.173333A289.28 289.28 0 0 1 309.76 213.333333l-88.746667-87.893333a21.333333 21.333333 0 1 1 30.293334-30.293333L341.333333 184.32a288.426667 288.426667 0 0 1 185.173334-66.986667 21.333333 21.333333 0 0 1 0 42.666667 247.466667 247.466667 0 1 0 247.04 247.04 250.88 250.88 0 0 0-7.253334-58.88 21.333333 21.333333 0 0 1 42.666667-10.24 290.133333 290.133333 0 0 1-281.6 359.253333zM664.746667 462.08a21.333333 21.333333 0 0 1 39.68 15.786667A193.28 193.28 0 0 1 597.333333 586.666667a21.333333 21.333333 0 0 1-15.786666-39.68 150.613333 150.613333 0 0 0 83.2-84.906667z"  horiz-adv-x="1024" />

    
    <glyph glyph-name="shuaxinxiaoxi" unicode="&#58918;" d="M815.786667 733.44H208.213333A101.973333 101.973333 0 0 1 106.666667 631.893333v-351.146666a101.973333 101.973333 0 0 1 101.546666-101.546667h119.893334a21.333333 21.333333 0 0 0 13.653333-5.12l32-27.306667a21.333333 21.333333 0 0 1 27.733333 32.426667l-32 27.306667a64 64 0 0 1-42.666666 15.36H208.213333a59.306667 59.306667 0 0 0-58.88 58.453333V631.893333a59.306667 59.306667 0 0 0 58.88 58.88h607.573334a59.306667 59.306667 0 0 0 58.88-58.88v-351.146666a59.306667 59.306667 0 0 0-58.88-58.88h-119.893334a64 64 0 0 1-42.666666-15.36l-128-109.226667a21.333333 21.333333 0 0 0-27.733334 0 21.333333 21.333333 0 0 1-27.733333-32.426667 63.573333 63.573333 0 0 1 82.773333 0l128 109.226667a21.333333 21.333333 0 0 0 13.653334 5.12h119.893333a101.973333 101.973333 0 0 1 101.546667 101.546667V631.893333a101.973333 101.973333 0 0 1-99.84 101.546667zM437.76 585.386667a148.053333 148.053333 0 0 0 56.32 18.773333 21.333333 21.333333 0 0 1 17.92 23.893333 20.906667 20.906667 0 0 1-23.893333 18.346667 189.013333 189.013333 0 0 1-72.106667-24.32 192 192 0 1 1 282.026667-122.453333l29.866666-14.08a21.333333 21.333333 0 0 1 18.346667 38.4l-77.226667 36.693333h-16.213333l-8.106667-5.973333-4.693333-2.56-36.693333-77.226667a21.333333 21.333333 0 0 1 38.4-18.346667l14.933333 31.573334a148.906667 148.906667 0 1 0-220.16 98.986666z"  horiz-adv-x="1024" />

    
    <glyph glyph-name="jinfaxiaoxi" unicode="&#58919;" d="M815.786667 733.44H208.213333A101.973333 101.973333 0 0 1 106.666667 631.893333v-351.146666a101.973333 101.973333 0 0 1 101.546666-101.546667h119.893334a21.333333 21.333333 0 0 0 13.653333-5.12l32-27.306667a21.333333 21.333333 0 0 1 27.733333 32.426667l-32 27.306667a64 64 0 0 1-42.666666 15.36H208.213333a59.306667 59.306667 0 0 0-58.88 58.453333V631.893333a59.306667 59.306667 0 0 0 58.88 58.88h607.573334a59.306667 59.306667 0 0 0 58.88-58.88v-351.146666a59.306667 59.306667 0 0 0-58.88-58.88h-119.893334a64 64 0 0 1-42.666666-15.36l-128-109.226667a21.333333 21.333333 0 0 0-27.733334 0 21.333333 21.333333 0 1 1-27.733333-32.426667 64 64 0 0 1 82.773333 0l128 109.226667a21.333333 21.333333 0 0 0 13.653334 5.12h119.893333a101.973333 101.973333 0 0 1 101.546667 101.546667V631.893333a101.973333 101.973333 0 0 1-99.84 101.546667zM704.426667 455.68a191.146667 191.146667 0 0 1-55.466667 134.826667 192 192 0 0 1-272.213333-270.506667 192 192 0 0 1 327.253333 136.106667zM512 306.346667a148.053333 148.053333 0 0 0-88.746667 29.866666l208.213334 208.64a148.053333 148.053333 0 0 0 29.866666-88.746666 149.333333 149.333333 0 0 0-149.333333-149.76z m0 298.666666a148.053333 148.053333 0 0 0 89.173333-30.293333l-207.786666-208.213333a148.053333 148.053333 0 0 0-30.293334 89.173333A149.333333 149.333333 0 0 0 512 605.013333z"  horiz-adv-x="1024" />

    
    <glyph glyph-name="xiaoxi" unicode="&#58920;" d="M815.786667 725.333333H208.213333A101.973333 101.973333 0 0 1 106.666667 624.213333v-351.146666A101.973333 101.973333 0 0 1 208.213333 170.666667h119.893334a21.333333 21.333333 0 0 0 13.226666-4.266667l32-27.306667a21.333333 21.333333 0 0 1 28.16 31.573334l-32 27.306666a64 64 0 0 1-42.666666 15.36H208.213333a59.306667 59.306667 0 0 0-58.88 59.733334V624.213333A59.306667 59.306667 0 0 0 208.213333 682.666667h607.573334a59.306667 59.306667 0 0 0 58.88-58.453334v-351.146666a59.306667 59.306667 0 0 0-58.88-59.733334h-119.893334a64 64 0 0 1-42.666666-15.36l-128-109.226666a21.333333 21.333333 0 0 0-27.733334 0 21.333333 21.333333 0 0 1-27.733333-32.426667 63.573333 63.573333 0 0 1 82.773333 0l128 109.226667a21.333333 21.333333 0 0 0 13.653334 5.12h119.893333a101.973333 101.973333 0 0 1 103.253333 102.4V624.213333A101.973333 101.973333 0 0 1 815.786667 725.333333zM512 445.013333m-42.666667 0a42.666667 42.666667 0 1 1 85.333334 0 42.666667 42.666667 0 1 1-85.333334 0ZM298.666667 445.013333m-42.666667 0a42.666667 42.666667 0 1 1 85.333333 0 42.666667 42.666667 0 1 1-85.333333 0ZM725.333333 445.013333m-42.666666 0a42.666667 42.666667 0 1 1 85.333333 0 42.666667 42.666667 0 1 1-85.333333 0Z"  horiz-adv-x="1024" />

    
    <glyph glyph-name="xiaoxilishi" unicode="&#58921;" d="M815.786667 733.44H208.213333A101.973333 101.973333 0 0 1 106.666667 631.893333v-351.146666a101.973333 101.973333 0 0 1 101.546666-101.546667h119.893334a21.333333 21.333333 0 0 0 13.653333-5.12l32-27.306667a21.333333 21.333333 0 0 1 27.733333 32.426667l-32 27.306667a64 64 0 0 1-42.666666 15.36H208.213333a59.306667 59.306667 0 0 0-58.88 58.453333V631.893333a59.306667 59.306667 0 0 0 58.88 58.88h607.573334a59.306667 59.306667 0 0 0 58.88-58.88v-351.146666a59.306667 59.306667 0 0 0-58.88-58.88h-119.893334a64 64 0 0 1-42.666666-15.36l-128-109.226667a21.333333 21.333333 0 0 0-27.733334 0 21.333333 21.333333 0 1 1-27.733333-32.426667 63.573333 63.573333 0 0 1 82.773333 0l128 109.226667a21.333333 21.333333 0 0 0 13.653334 5.12h119.893333a101.973333 101.973333 0 0 1 101.546667 101.546667V631.893333a101.973333 101.973333 0 0 1-99.84 101.546667zM512 562.346667a21.333333 21.333333 0 0 1-21.333333-21.333334v-85.333333a21.333333 21.333333 0 0 1 21.333333-21.333333h85.333333a21.333333 21.333333 0 0 1 0 42.666666h-64v64a21.333333 21.333333 0 0 1-21.333333 21.333334zM560.213333 640A188.586667 188.586667 0 0 1 512 647.68a192 192 0 1 1 192-192 189.866667 189.866667 0 0 1-6.4 48.213333 21.333333 21.333333 0 1 1-42.666667-10.666666 146.346667 146.346667 0 0 0 5.12-37.546667A149.333333 149.333333 0 1 0 512 605.013333a147.2 147.2 0 0 0 37.546667-5.546666 21.333333 21.333333 0 1 1 10.666666 42.666666z"  horiz-adv-x="1024" />

    
    <glyph glyph-name="xinxiaoxi" unicode="&#58922;" d="M369.493333 198.826667a64 64 0 0 1-42.666666 15.36H208.213333A59.306667 59.306667 0 0 0 149.333333 273.066667V624.213333A59.306667 59.306667 0 0 0 208.213333 682.666667h479.573334a21.333333 21.333333 0 1 1 0 42.666666H208.213333A101.973333 101.973333 0 0 1 106.666667 624.213333v-351.146666A101.973333 101.973333 0 0 1 208.213333 170.666667h119.893334a21.333333 21.333333 0 0 0 13.226666-4.266667l32-27.306667a21.333333 21.333333 0 1 1 28.16 31.573334zM896 517.546667a21.333333 21.333333 0 0 1-21.333333-21.333334v-223.146666a59.306667 59.306667 0 0 0-58.88-59.733334h-119.893334a64.426667 64.426667 0 0 1-42.666666-15.36l-128-109.226666a21.333333 21.333333 0 0 0-27.733334 0 21.333333 21.333333 0 0 1-27.733333-32.426667 63.573333 63.573333 0 0 1 82.773333 0l128 109.226667a21.76 21.76 0 0 0 14.08 5.12h119.893334a101.973333 101.973333 0 0 1 102.826666 102.4V496.213333a21.333333 21.333333 0 0 1-21.333333 21.333334zM512 445.013333m-42.666667 0a42.666667 42.666667 0 1 1 85.333334 0 42.666667 42.666667 0 1 1-85.333334 0ZM298.666667 445.013333m-42.666667 0a42.666667 42.666667 0 1 1 85.333333 0 42.666667 42.666667 0 1 1-85.333333 0ZM725.333333 445.013333m-42.666666 0a42.666667 42.666667 0 1 1 85.333333 0 42.666667 42.666667 0 1 1-85.333333 0ZM853.333333 768a106.666667 106.666667 0 1 1 106.666667-106.666667A106.666667 106.666667 0 0 1 853.333333 768z m0-170.666667a64 64 0 1 0 64 64A64 64 0 0 0 853.333333 597.333333z"  horiz-adv-x="1024" />

    
    <glyph glyph-name="xiaoxihuishouzhan" unicode="&#58923;" d="M815.786667 733.44H208.213333A101.973333 101.973333 0 0 1 106.666667 631.893333v-351.146666a101.973333 101.973333 0 0 1 101.546666-101.546667h119.893334a21.333333 21.333333 0 0 0 13.653333-5.12l32-27.306667a21.333333 21.333333 0 0 1 27.733333 32.426667l-32 27.306667a64 64 0 0 1-42.666666 15.36H208.213333a59.306667 59.306667 0 0 0-58.88 58.453333V631.893333a59.306667 59.306667 0 0 0 58.88 58.88h607.573334a59.306667 59.306667 0 0 0 58.88-58.88v-351.146666a59.306667 59.306667 0 0 0-58.88-58.88h-119.893334a64 64 0 0 1-42.666666-15.36l-128-109.226667a21.333333 21.333333 0 0 0-27.733334 0 21.333333 21.333333 0 0 1-27.733333-32.426667 63.573333 63.573333 0 0 1 82.773333 0l128 109.226667a21.333333 21.333333 0 0 0 13.653334 5.12h119.893333a101.973333 101.973333 0 0 1 101.546667 101.546667V631.893333a101.973333 101.973333 0 0 1-99.84 101.546667zM469.333333 294.826667h85.333334a64 64 0 0 1 64 64v149.333333h10.666666a21.333333 21.333333 0 0 1 0 42.666667h-234.666666a21.333333 21.333333 0 0 1 0-42.666667h10.666666v-149.333333a64 64 0 0 1 64-64z m-21.333333 213.333333h128v-149.333333a21.333333 21.333333 0 0 0-21.333333-21.333334h-85.333334a21.333333 21.333333 0 0 0-21.333333 21.333334zM544 572.16a21.333333 21.333333 0 0 1 0 42.666667h-64a21.333333 21.333333 0 0 1 0-42.666667z"  horiz-adv-x="1024" />

    
    <glyph glyph-name="xiaoxifangxiang" unicode="&#58924;" d="M512 452.266667m-42.666667 0a42.666667 42.666667 0 1 1 85.333334 0 42.666667 42.666667 0 1 1-85.333334 0ZM298.666667 452.266667m-42.666667 0a42.666667 42.666667 0 1 1 85.333333 0 42.666667 42.666667 0 1 1-85.333333 0ZM725.333333 452.266667m-42.666666 0a42.666667 42.666667 0 1 1 85.333333 0 42.666667 42.666667 0 1 1-85.333333 0ZM369.493333 206.08a64 64 0 0 1-42.666666 15.36H208.213333a59.306667 59.306667 0 0 0-58.88 58.88V631.893333a59.306667 59.306667 0 0 0 58.88 58.88h636.16l-54.186666-54.186666a21.333333 21.333333 0 1 1 30.293333-30.293334l90.453333 90.453334a21.333333 21.333333 0 0 1 0 30.293333l-90.453333 90.453333a21.333333 21.333333 0 0 1-30.293333-30.293333l54.186666-54.186667H208.213333A101.973333 101.973333 0 0 1 106.666667 631.893333v-351.146666a101.973333 101.973333 0 0 1 101.546666-101.546667h119.893334a21.333333 21.333333 0 0 0 13.653333-5.12l32-27.306667a21.333333 21.333333 0 0 1 27.733333 32.426667zM896 516.266667a21.333333 21.333333 0 0 1-21.333333-21.333334v-213.333333a59.306667 59.306667 0 0 0-58.88-58.88h-119.893334a64 64 0 0 1-42.666666-15.36l-128-109.226667a21.333333 21.333333 0 0 0-27.733334 0 21.333333 21.333333 0 0 1-27.733333-32.426666 63.573333 63.573333 0 0 1 82.773333 0l128 109.226666a21.333333 21.333333 0 0 0 13.653334 5.12h119.893333a101.973333 101.973333 0 0 1 101.546667 101.546667v213.333333a21.333333 21.333333 0 0 1-19.626667 21.333334z"  horiz-adv-x="1024" />

    
    <glyph glyph-name="jinzhixiaoxi" unicode="&#58925;" d="M815.786667 733.44H208.213333A101.973333 101.973333 0 0 1 106.666667 631.893333v-351.146666a101.973333 101.973333 0 0 1 101.546666-101.546667h119.893334a21.333333 21.333333 0 0 0 13.653333-5.12l32-27.306667a21.333333 21.333333 0 0 1 27.733333 32.426667l-32 27.306667a64 64 0 0 1-42.666666 15.36H208.213333a59.306667 59.306667 0 0 0-58.88 58.453333V631.893333a59.306667 59.306667 0 0 0 58.88 58.88h607.573334a59.306667 59.306667 0 0 0 58.88-58.88v-351.146666a59.306667 59.306667 0 0 0-58.88-58.88h-119.893334a64 64 0 0 1-42.666666-15.36l-128-109.226667a21.333333 21.333333 0 0 0-27.733334 0 21.333333 21.333333 0 1 1-27.733333-32.426667 64 64 0 0 1 82.773333 0l128 109.226667a21.333333 21.333333 0 0 0 13.653334 5.12h119.893333a101.973333 101.973333 0 0 1 101.546667 101.546667V631.893333a101.973333 101.973333 0 0 1-99.84 101.546667zM704.426667 455.68a191.146667 191.146667 0 0 1-55.466667 134.826667 192 192 0 0 1-272.213333-270.506667 192 192 0 0 1 327.253333 136.106667zM512 306.346667a148.053333 148.053333 0 0 0-88.746667 29.866666l208.213334 208.64a148.053333 148.053333 0 0 0 29.866666-88.746666 149.333333 149.333333 0 0 0-149.333333-149.76z m0 298.666666a148.053333 148.053333 0 0 0 89.173333-30.293333l-207.786666-208.213333a148.053333 148.053333 0 0 0-30.293334 89.173333A149.333333 149.333333 0 0 0 512 605.013333z"  horiz-adv-x="1024" />

    
    <glyph glyph-name="jinyongyajin" unicode="&#58926;" d="M270.506667 661.333333a21.333333 21.333333 0 0 1 13.226666 4.693334 366.933333 366.933333 0 0 0 42.666667 30.293333 21.333333 21.333333 0 0 1-21.76 36.693333A410.453333 410.453333 0 0 1 256 699.306667a21.333333 21.333333 0 0 1 13.226667-37.973334zM384 351.573333a21.333333 21.333333 0 0 1 0-42.666666h106.666667v-85.333334a21.333333 21.333333 0 0 1 42.666666 0v85.333334H640a21.333333 21.333333 0 0 1 0 42.666666h-106.666667v64H640a21.333333 21.333333 0 0 1 0 42.666667H384a21.333333 21.333333 0 0 1 0-42.666667h106.666667v-64zM578.986667 484.266667l45.226666 45.226666a21.333333 21.333333 0 0 1-30.293333 30.293334l-44.8-45.226667a21.333333 21.333333 0 0 1 30.293333-30.293333zM474.88 484.266667a21.333333 21.333333 0 0 1 0 30.293333l-45.226667 45.226667a21.333333 21.333333 0 0 1-30.293333-30.293334l45.226667-45.226666a21.333333 21.333333 0 0 1 30.293333 0zM917.333333 384A405.76 405.76 0 0 1 387.413333 768a21.333333 21.333333 0 0 1 13.226667-42.666667 363.093333 363.093333 0 0 0 474.026667-341.333333 363.093333 363.093333 0 0 0-2.56-42.666667 21.333333 21.333333 0 0 1 18.773333-23.466666h2.56a21.333333 21.333333 0 0 1 21.333333 18.773333A409.173333 409.173333 0 0 1 917.333333 384zM550.826667 23.466667a369.493333 369.493333 0 0 0-38.826667-2.133334A362.666667 362.666667 0 0 0 208.64 582.826667a21.333333 21.333333 0 0 1-35.84 23.466666A405.333333 405.333333 0 0 1 512-21.333333a409.6 409.6 0 0 1 42.666667 2.56 21.333333 21.333333 0 1 1-4.693334 42.666666zM863.146667 264.533333a167.253333 167.253333 0 0 1-236.373334-236.8 167.253333 167.253333 0 0 1 236.373334 236.373334z m-118.186667 6.4a123.733333 123.733333 0 0 0 71.68-23.04l-173.226667-173.226666a124.586667 124.586667 0 0 0 101.973334 196.266666z m0-249.6a123.733333 123.733333 0 0 0-71.68 21.333334l173.226667 173.226666a124.16 124.16 0 0 0-101.973334-196.266666z"  horiz-adv-x="1024" />

    
    <glyph glyph-name="yajinjinggao" unicode="&#58927;" d="M270.506667 661.333333a21.333333 21.333333 0 0 1 13.226666 4.693334 366.933333 366.933333 0 0 0 42.666667 30.293333 21.333333 21.333333 0 0 1-21.76 36.693333A410.453333 410.453333 0 0 1 256 699.306667a21.333333 21.333333 0 0 1 13.226667-37.973334zM384 351.573333a21.333333 21.333333 0 0 1 0-42.666666h106.666667v-85.333334a21.333333 21.333333 0 0 1 42.666666 0v85.333334H640a21.333333 21.333333 0 0 1 0 42.666666h-106.666667v64H640a21.333333 21.333333 0 0 1 0 42.666667H384a21.333333 21.333333 0 0 1 0-42.666667h106.666667v-64zM578.986667 484.266667l45.226666 45.226666a21.333333 21.333333 0 0 1-30.293333 30.293334l-44.8-45.226667a21.333333 21.333333 0 0 1 30.293333-30.293333zM474.88 484.266667a21.333333 21.333333 0 0 1 0 30.293333l-45.226667 45.226667a21.333333 21.333333 0 0 1-30.293333-30.293334l45.226667-45.226666a21.333333 21.333333 0 0 1 30.293333 0zM512 789.333333a404.053333 404.053333 0 0 1-124.586667-21.333333 21.333333 21.333333 0 0 1 13.226667-42.666667 363.093333 363.093333 0 0 0 474.026667-341.333333 363.52 363.52 0 0 0-2.56-42.666667 21.333333 21.333333 0 0 1 18.773333-23.466666h2.56a21.333333 21.333333 0 0 1 21.333333 18.773333A408.746667 408.746667 0 0 1 917.333333 384 405.76 405.76 0 0 1 512 789.333333zM550.826667 23.466667a376.32 376.32 0 0 0-38.826667 0A362.666667 362.666667 0 0 0 208.64 582.826667a21.333333 21.333333 0 0 1-35.84 23.466666A405.333333 405.333333 0 0 1 512-21.333333a413.866667 413.866667 0 0 1 42.666667 2.56 21.333333 21.333333 0 0 1-4.266667 42.666666zM824.32 306.773333a21.333333 21.333333 0 0 1-14.933333 6.4h-121.173334a21.333333 21.333333 0 0 1-14.933333-6.4l-85.333333-85.333333a21.333333 21.333333 0 0 1-6.4-14.933333V85.333333a21.333333 21.333333 0 0 1 6.4-14.933333l85.333333-85.333333a21.333333 21.333333 0 0 1 14.933333-6.4H810.666667a21.333333 21.333333 0 0 1 14.933333 6.4l85.333333 85.333333a21.333333 21.333333 0 0 1 6.4 14.933333v120.746667a21.333333 21.333333 0 0 1-6.4 14.933333z m49.066667-213.333333l-72.96-72.96h-103.253334l-73.386666 73.386667v103.253333l72.96 72.96h103.253333l72.96-72.96zM748.8 112.64a21.333333 21.333333 0 0 1 21.333333 21.333333v82.773334a21.333333 21.333333 0 1 1-42.666666 0v-82.773334a21.333333 21.333333 0 0 1 21.333333-21.333333zM748.8 74.24m-21.333333 0a21.333333 21.333333 0 1 1 42.666666 0 21.333333 21.333333 0 1 1-42.666666 0Z"  horiz-adv-x="1027" />

    
    <glyph glyph-name="shuaxinyajin" unicode="&#58928;" d="M270.506667 661.333333a21.333333 21.333333 0 0 1 13.226666 4.693334 366.933333 366.933333 0 0 0 42.666667 30.293333 21.333333 21.333333 0 0 1-21.76 36.693333A410.453333 410.453333 0 0 1 256 699.306667a21.333333 21.333333 0 0 1 13.226667-37.973334zM384 351.573333a21.333333 21.333333 0 0 1 0-42.666666h106.666667v-85.333334a21.333333 21.333333 0 0 1 42.666666 0v85.333334H640a21.333333 21.333333 0 0 1 0 42.666666h-106.666667v64H640a21.333333 21.333333 0 0 1 0 42.666667H384a21.333333 21.333333 0 0 1 0-42.666667h106.666667v-64zM594.346667 559.786667l-45.226667-45.226667a21.333333 21.333333 0 0 1 30.293333-30.293333l45.226667 45.226666a21.333333 21.333333 0 0 1-30.293333 30.293334zM399.786667 559.786667a21.333333 21.333333 0 0 1 0-30.293334l45.226666-45.226666a21.333333 21.333333 0 0 1 30.293334 30.293333l-45.653334 45.226667a21.333333 21.333333 0 0 1-29.866666 0zM400.64 729.173333A363.093333 363.093333 0 0 0 874.666667 384a363.093333 363.093333 0 0 0-2.56-42.666667 21.333333 21.333333 0 0 1 18.773333-23.466666h2.56a21.333333 21.333333 0 0 1 21.333333 18.773333A409.173333 409.173333 0 0 1 917.333333 384 405.76 405.76 0 0 1 387.413333 768a21.333333 21.333333 0 0 1 13.226667-42.666667zM550.826667 23.466667a369.493333 369.493333 0 0 0-38.826667-2.133334A362.666667 362.666667 0 0 0 208.64 582.826667a21.333333 21.333333 0 0 1-35.84 23.466666A405.333333 405.333333 0 0 1 512-21.333333a409.6 409.6 0 0 1 42.666667 2.56 21.333333 21.333333 0 1 1-4.693334 42.666666zM949.76 167.68l-53.333333 42.666667h-21.76l-3.413334-2.986667-42.666666-53.333333a21.333333 21.333333 0 1 1 33.28-26.453334l11.946666 15.36a124.16 124.16 0 1 0-87.893333 123.306667 21.333333 21.333333 0 1 1 12.373333 42.666667 167.253333 167.253333 0 1 1 118.186667-162.986667l11.093333-8.96a21.333333 21.333333 0 1 1 26.453334 33.28z"  horiz-adv-x="1024" />

    
    <glyph glyph-name="yajinlishi" unicode="&#58929;" d="M270.506667 661.333333a21.333333 21.333333 0 0 1 13.226666 4.693334 366.933333 366.933333 0 0 0 42.666667 30.293333 21.333333 21.333333 0 0 1-21.76 36.693333A410.453333 410.453333 0 0 1 256 699.306667a21.333333 21.333333 0 0 1 13.226667-37.973334zM384 351.573333a21.333333 21.333333 0 0 1 0-42.666666h106.666667v-85.333334a21.333333 21.333333 0 0 1 42.666666 0v85.333334H640a21.333333 21.333333 0 0 1 0 42.666666h-106.666667v64H640a21.333333 21.333333 0 0 1 0 42.666667H384a21.333333 21.333333 0 0 1 0-42.666667h106.666667v-64zM578.986667 484.266667l45.226666 45.226666a21.333333 21.333333 0 0 1-30.293333 30.293334l-44.8-45.226667a21.333333 21.333333 0 0 1 30.293333-30.293333zM474.88 484.266667a21.333333 21.333333 0 0 1 0 30.293333l-45.226667 45.226667a21.333333 21.333333 0 0 1-30.293333-30.293334l45.226667-45.226666a21.333333 21.333333 0 0 1 30.293333 0zM805.546667 167.253333H768v39.253334a21.333333 21.333333 0 0 1-42.666667 0v-60.586667a21.333333 21.333333 0 0 1 21.333334-21.333333h60.586666a21.333333 21.333333 0 0 1 0 42.666666zM744.96 313.6a167.253333 167.253333 0 1 1 167.253333-167.253333 167.68 167.68 0 0 1-167.253333 167.253333z m0-292.266667a124.586667 124.586667 0 1 0 124.586667 124.586667 125.013333 125.013333 0 0 0-124.586667-124.586667zM917.333333 384A405.76 405.76 0 0 1 387.413333 768a21.333333 21.333333 0 0 1 13.226667-42.666667 363.093333 363.093333 0 0 0 474.026667-341.333333 363.093333 363.093333 0 0 0-2.56-42.666667 21.333333 21.333333 0 0 1 18.773333-23.466666h2.56a21.333333 21.333333 0 0 1 21.333333 18.773333A409.173333 409.173333 0 0 1 917.333333 384zM550.826667 23.466667a369.92 369.92 0 0 0-38.826667-2.133334A362.666667 362.666667 0 0 0 208.64 582.826667a21.333333 21.333333 0 0 1-35.84 23.466666A405.333333 405.333333 0 0 1 512-21.333333a410.453333 410.453333 0 0 1 42.666667 2.56 21.333333 21.333333 0 0 1-4.693334 42.666666z"  horiz-adv-x="1024" />

    
    <glyph glyph-name="yajinjinchu" unicode="&#58930;" d="M270.506667 661.333333a21.333333 21.333333 0 0 1 13.226666 4.693334 366.933333 366.933333 0 0 0 42.666667 30.293333 21.333333 21.333333 0 0 1-21.76 36.693333A410.453333 410.453333 0 0 1 256 699.306667a21.333333 21.333333 0 0 1 13.226667-37.973334zM384 351.573333a21.333333 21.333333 0 0 1 0-42.666666h106.666667v-85.333334a21.333333 21.333333 0 0 1 42.666666 0v85.333334H640a21.333333 21.333333 0 0 1 0 42.666666h-106.666667v64H640a21.333333 21.333333 0 0 1 0 42.666667H384a21.333333 21.333333 0 0 1 0-42.666667h106.666667v-64zM578.986667 484.266667l45.226666 45.226666a21.333333 21.333333 0 0 1-30.293333 30.293334l-44.8-45.226667a21.333333 21.333333 0 0 1 30.293333-30.293333zM474.88 484.266667a21.333333 21.333333 0 0 1 0 30.293333l-45.226667 45.226667a21.333333 21.333333 0 0 1-30.293333-30.293334l45.226667-45.226666a21.333333 21.333333 0 0 1 30.293333 0zM917.333333 384A405.76 405.76 0 0 1 387.413333 768a21.333333 21.333333 0 0 1 13.226667-42.666667 363.093333 363.093333 0 0 0 474.026667-341.333333 363.093333 363.093333 0 0 0-2.56-42.666667 21.333333 21.333333 0 0 1 18.773333-23.466666h2.56a21.333333 21.333333 0 0 1 21.333333 18.773333A409.173333 409.173333 0 0 1 917.333333 384zM550.826667 23.466667a369.92 369.92 0 0 0-38.826667-2.133334A362.666667 362.666667 0 0 0 208.64 582.826667a21.333333 21.333333 0 0 1-35.84 23.466666A405.333333 405.333333 0 0 1 512-21.333333a410.453333 410.453333 0 0 1 42.666667 2.56 21.333333 21.333333 0 1 1-4.693334 42.666666zM620.373333 192.426667h249.173334a21.333333 21.333333 0 0 1 14.933333 36.266666l-57.173333 57.173334a21.333333 21.333333 0 0 1-30.293334-30.293334l20.906667-20.906666h-197.546667a21.333333 21.333333 0 0 1 0-42.666667zM869.546667 147.2h-249.173334a21.333333 21.333333 0 0 1-14.933333-36.266667l57.173333-57.173333a21.333333 21.333333 0 1 1 30.293334 30.293333l-20.906667 20.906667h197.973333a21.333333 21.333333 0 0 1 0 42.666667z"  horiz-adv-x="1024" />

    
    <glyph glyph-name="jinyongyuyin" unicode="&#58931;" d="M741.546667 379.306667a21.333333 21.333333 0 1 1-42.666667 0A186.453333 186.453333 0 0 0 384 245.333333a21.333333 21.333333 0 0 1-29.866667-30.72 227.413333 227.413333 0 0 1 137.813334-62.72v-88.32H426.666667a21.333333 21.333333 0 0 1 0-42.666666h170.666666a21.333333 21.333333 0 0 1 0 42.666666h-64v88.32a228.693333 228.693333 0 0 1 208.213334 227.413334zM396.373333 443.306667a21.333333 21.333333 0 0 1 21.333334 21.333333V610.133333a94.293333 94.293333 0 0 0 146.773333 78.08 21.333333 21.333333 0 0 1 23.893333 37.12 136.96 136.96 0 0 1-213.333333-113.493333v-145.92a21.333333 21.333333 0 0 1 21.333333-22.613333zM384 335.36a136.533333 136.533333 0 0 1 265.813333 42.666667V601.6l58.026667 58.026667a21.333333 21.333333 0 1 1-30.293333 30.293333l-64-64-296.106667-295.68a21.333333 21.333333 0 1 1 30.293333-30.293333z m223.146667 42.666667a93.866667 93.866667 0 0 0-187.733334-8.106667l187.733334 187.733333z"  horiz-adv-x="1024" />

    
    <glyph glyph-name="yuyingengxin" unicode="&#58932;" d="M512 242.346667a136.96 136.96 0 0 1 136.96 136.96V524.8l54.186667-55.466667a21.333333 21.333333 0 0 1 30.293333 30.293334l-90.88 91.733333a21.333333 21.333333 0 0 1-30.293333 0l-90.453334-90.453333a21.333333 21.333333 0 1 1 30.293334-30.293334l54.186666 54.186667v-145.92a94.293333 94.293333 0 0 0-188.586666 0V610.133333a95.146667 95.146667 0 0 0 66.56 90.026667 21.333333 21.333333 0 1 1-12.8 42.666667A138.24 138.24 0 0 1 375.04 610.133333v-231.253333a136.96 136.96 0 0 1 136.96-136.533333zM741.12 379.306667a21.333333 21.333333 0 1 1-42.666667 0 186.88 186.88 0 0 0-373.333333 0 21.333333 21.333333 0 0 1-42.666667 0 228.693333 228.693333 0 0 1 208.213334-226.986667v-88.32H426.666667a21.333333 21.333333 0 0 1 0-42.666667h170.666666a21.333333 21.333333 0 0 1 0 42.666667h-64v87.893333a228.693333 228.693333 0 0 1 207.786667 227.413334z"  horiz-adv-x="1024" />

    
    <glyph glyph-name="yuyinjinggao" unicode="&#58933;" d="M512 242.346667a136.96 136.96 0 0 1 136.96 136.96V610.133333a136.96 136.96 0 0 1-273.92 0v-231.253333a136.96 136.96 0 0 1 136.96-136.533333zM417.706667 610.133333a94.293333 94.293333 0 0 0 188.586666 0v-231.253333a94.293333 94.293333 0 0 0-188.586666 0zM741.546667 379.306667a21.333333 21.333333 0 0 1-42.666667 0 186.453333 186.453333 0 1 0-373.333333 0 21.333333 21.333333 0 0 1-42.666667 0 228.693333 228.693333 0 0 1 207.786667-226.986667v-88.32H426.666667a21.333333 21.333333 0 0 1 0-42.666667h170.666666a21.333333 21.333333 0 0 1 0 42.666667h-64v87.893333a228.693333 228.693333 0 0 1 208.213334 227.413334zM512 461.226667a21.333333 21.333333 0 0 1 21.333333 21.333333V592.213333a21.333333 21.333333 0 0 1-42.666666 0v-109.653333a21.333333 21.333333 0 0 1 21.333333-21.333333zM512 397.226667m-21.333333 0a21.333333 21.333333 0 1 1 42.666666 0 21.333333 21.333333 0 1 1-42.666666 0Z"  horiz-adv-x="1024" />

    
    <glyph glyph-name="yuyin" unicode="&#58934;" d="M512 242.346667a136.96 136.96 0 0 1 136.96 136.96V610.133333a136.96 136.96 0 0 1-273.92 0v-231.253333a136.96 136.96 0 0 1 136.96-136.533333zM417.706667 610.133333a94.293333 94.293333 0 0 0 188.586666 0v-231.253333a94.293333 94.293333 0 0 0-188.586666 0zM741.546667 379.306667a21.333333 21.333333 0 0 1-42.666667 0 186.453333 186.453333 0 1 0-373.333333 0 21.333333 21.333333 0 0 1-42.666667 0 228.693333 228.693333 0 0 1 207.786667-226.986667v-88.32H426.666667a21.333333 21.333333 0 0 1 0-42.666667h170.666666a21.333333 21.333333 0 1 1 0 42.666667h-64v87.893333a228.693333 228.693333 0 0 1 208.213334 227.413334z"  horiz-adv-x="1024" />

    
    <glyph glyph-name="xinyuyin" unicode="&#58935;" d="M512 242.346667a136.96 136.96 0 0 1 136.96 136.96V576.426667a21.333333 21.333333 0 0 1-42.666667 0v-197.546667a94.293333 94.293333 0 0 0-188.586666 0V610.133333a95.146667 95.146667 0 0 0 66.56 90.026667 21.333333 21.333333 0 1 1-12.8 42.666667A138.24 138.24 0 0 1 375.04 610.133333v-231.253333a136.96 136.96 0 0 1 136.96-136.533333zM741.546667 379.306667a21.333333 21.333333 0 1 1-42.666667 0 186.88 186.88 0 0 0-373.333333 0 21.333333 21.333333 0 0 1-42.666667 0 228.693333 228.693333 0 0 1 208.213333-226.986667v-88.32H426.666667a21.333333 21.333333 0 1 1 0-42.666667h170.666666a21.333333 21.333333 0 0 1 0 42.666667h-64v87.893333a228.693333 228.693333 0 0 1 208.213334 227.413334zM627.2 640a85.333333 85.333333 0 1 1-85.333333 85.333333 85.333333 85.333333 0 0 1 85.333333-85.333333z m0 128a42.666667 42.666667 0 1 0-42.666667-42.666667 42.666667 42.666667 0 0 0 42.666667 42.666667z"  horiz-adv-x="1024" />

    
    <glyph glyph-name="yuyinfasong" unicode="&#58936;" d="M512 242.346667a136.96 136.96 0 0 1 136.96 136.96V576.426667a21.333333 21.333333 0 0 1-42.666667 0v-197.546667a94.293333 94.293333 0 0 0-188.586666 0V610.133333a95.146667 95.146667 0 0 0 66.56 90.026667 21.333333 21.333333 0 1 1-12.8 42.666667A138.24 138.24 0 0 1 375.04 610.133333v-231.253333a136.96 136.96 0 0 1 136.96-136.533333zM741.546667 379.306667a21.333333 21.333333 0 1 1-42.666667 0 186.88 186.88 0 0 0-373.333333 0 21.333333 21.333333 0 0 1-42.666667 0 228.693333 228.693333 0 0 1 208.213333-226.986667v-88.32H426.666667a21.333333 21.333333 0 1 1 0-42.666667h170.666666a21.333333 21.333333 0 0 1 0 42.666667h-64v87.893333a228.693333 228.693333 0 0 1 208.213334 227.413334zM545.706667 640h163.84a21.333333 21.333333 0 0 1 15.786666 38.4l-58.026666 57.173333a21.333333 21.333333 0 0 1-30.293334-30.293333l20.906667-20.906667h-112.213333a21.333333 21.333333 0 0 1 0-42.666666z"  horiz-adv-x="1024" />

    
    <glyph glyph-name="shoucangweizhi" unicode="&#58937;" d="M474.88-21.333333a21.333333 21.333333 0 0 0-12.373333 3.84c-13.653333 9.386667-328.96 233.813333-328.96 465.493333a341.333333 341.333333 0 0 0 682.666666 0 21.333333 21.333333 0 0 0-42.666666 0 298.666667 298.666667 0 0 1-597.333334 0c0-209.493333 307.626667-426.666667 311.04-430.506667a21.333333 21.333333 0 0 0-12.373333-38.826666zM474.88 288a160 160 0 0 0-160 160 162.133333 162.133333 0 0 0 3.413333 32 21.333333 21.333333 0 1 0 42.666667-8.533333 117.333333 117.333333 0 1 1 74.666667 85.333333A21.333333 21.333333 0 0 0 419.84 597.333333a160 160 0 1 0 55.04-310.186666zM869.546667-21.333333a21.333333 21.333333 0 0 0-13.226667 4.693333l-93.44 74.666667-93.44-74.666667a21.333333 21.333333 0 0 0-34.56 16.64v285.44a21.333333 21.333333 0 0 0 21.333333 21.333333h213.333334a21.333333 21.333333 0 0 0 21.333333-21.333333V0a21.333333 21.333333 0 0 0-21.333333-21.333333z m-106.666667 128a21.333333 21.333333 0 0 0 13.226667-4.693334L848.213333 42.666667v221.44h-170.666666V42.666667l72.106666 57.6a21.333333 21.333333 0 0 0 13.226667 6.4z"  horiz-adv-x="1024" />

    
    <glyph glyph-name="weizhijishi" unicode="&#58938;" d="M176.213333 448a298.666667 298.666667 0 0 0 597.333334 0 21.333333 21.333333 0 0 1 42.666666 0 341.333333 341.333333 0 0 1-682.666666 0c0-231.68 315.733333-456.106667 328.96-465.493333a21.333333 21.333333 0 0 1 29.866666 5.12 21.333333 21.333333 0 0 1-5.12 29.866666c-3.413333 2.133333-311.04 221.013333-311.04 430.506667zM341.333333 497.066667a21.333333 21.333333 0 0 1-25.173333-16.64 163.413333 163.413333 0 0 1-3.413333-32A160 160 0 1 1 419.413333 597.333333a21.333333 21.333333 0 1 1 14.933334-40.106666 116.906667 116.906667 0 1 0-74.666667-85.333334A21.333333 21.333333 0 0 1 341.333333 497.066667zM838.826667 267.093333a21.333333 21.333333 0 0 1-29.44-30.72 124.586667 124.586667 0 1 0-85.333334 34.56 21.333333 21.333333 0 0 1 0 42.666667 167.253333 167.253333 0 1 1 115.626667-46.08zM725.333333 228.266667a21.333333 21.333333 0 0 1-21.333333-21.333334v-60.586666a21.333333 21.333333 0 0 1 42.666667 0v60.586666a21.333333 21.333333 0 0 1-21.333334 21.333334zM757.333333 377.6h-68.266666a21.333333 21.333333 0 0 1 0-42.666667h68.266666a21.333333 21.333333 0 0 1 0 42.666667z"  horiz-adv-x="1024" />

    
    <glyph glyph-name="weizhicuowu" unicode="&#58939;" d="M197.546667 448a298.666667 298.666667 0 1 0 597.333333 0 21.333333 21.333333 0 0 1 42.666667 0 341.333333 341.333333 0 1 1-682.666667 0c0-231.68 315.733333-456.106667 328.96-465.493333a21.333333 21.333333 0 0 1 29.866667 5.12 21.333333 21.333333 0 0 1-5.12 29.866666c-2.986667 2.133333-311.04 221.013333-311.04 430.506667zM496.213333 608a160 160 0 0 1-55.04-10.666667 21.333333 21.333333 0 0 1 14.506667-40.106666 116.053333 116.053333 0 0 0 40.533333 7.253333 117.333333 117.333333 0 1 0-114.773333-93.866667 21.333333 21.333333 0 0 1-42.666667 8.533334 157.013333 157.013333 0 0 1-3.413333-32.426667 160 160 0 1 1 160 160zM775.253333 145.92l81.066667 81.066667a21.333333 21.333333 0 0 1-30.293333 30.293333l-81.066667-81.066667-81.066667 79.786667a21.333333 21.333333 0 0 1-30.293333-30.293333l81.066667-81.066667-81.066667-81.066667a21.333333 21.333333 0 1 1 30.293333-30.293333l81.066667 81.066667 81.066667-81.066667a21.333333 21.333333 0 0 1 30.293333 30.293333z"  horiz-adv-x="1024" />

    
    <glyph glyph-name="weizhixiangzuo" unicode="&#58940;" d="M163.413333 448a298.666667 298.666667 0 0 0 597.333334 0 21.333333 21.333333 0 0 1 42.666666 0 341.333333 341.333333 0 0 1-682.666666 0c0-231.68 315.733333-456.106667 328.96-465.493333a21.333333 21.333333 0 0 1 29.866666 5.12 21.333333 21.333333 0 0 1-5.12 29.866666c-5.12 2.133333-311.04 221.013333-311.04 430.506667zM462.08 608A160 160 0 0 1 407.04 597.333333a21.333333 21.333333 0 0 1 14.506667-40.106666 116.053333 116.053333 0 0 0 40.533333 7.253333 116.906667 116.906667 0 1 0-115.2-92.586667 21.333333 21.333333 0 1 1-42.666667 8.533334 163.413333 163.413333 0 0 1-3.413333-32 160 160 0 1 1 160 160zM580.693333 134.826667a20.906667 20.906667 0 0 0 0 11.093333v2.56a20.906667 20.906667 0 0 0 5.12 9.813333L728.32 298.666667a21.333333 21.333333 0 0 0 30.293333-30.293334l-106.24-106.24h229.973334a21.333333 21.333333 0 0 0 0-42.666666h-230.4l106.666666-106.666667a21.333333 21.333333 0 1 0-30.293333-30.293333L585.386667 128a21.333333 21.333333 0 0 0-4.266667 6.826667z"  horiz-adv-x="1024" />

    
    <glyph glyph-name="weizhilishi" unicode="&#58941;" d="M176.213333 448a298.666667 298.666667 0 0 0 597.333334 0 21.333333 21.333333 0 0 1 42.666666 0 341.333333 341.333333 0 0 1-682.666666 0c0-231.68 315.733333-456.106667 328.96-465.493333a21.333333 21.333333 0 0 1 29.866666 5.12 21.333333 21.333333 0 0 1-5.12 29.866666c-3.413333 2.133333-311.04 221.013333-311.04 430.506667zM341.333333 497.066667a21.333333 21.333333 0 0 1-25.173333-16.64 163.413333 163.413333 0 0 1-3.413333-32A160 160 0 1 1 419.413333 597.333333a21.333333 21.333333 0 1 1 14.506667-40.106666 116.053333 116.053333 0 0 0 40.533333 7.253333 116.906667 116.906667 0 1 0-114.773333-92.586667 21.333333 21.333333 0 0 1-18.346667 25.173334zM725.333333 313.6a167.253333 167.253333 0 1 1 167.253334-167.253333A167.68 167.68 0 0 1 725.333333 313.6z m0-292.266667a124.586667 124.586667 0 1 0 124.586667 124.586667A125.013333 125.013333 0 0 0 725.333333 21.333333zM784.213333 167.253333h-39.253333v39.253334a21.333333 21.333333 0 1 1-42.666667 0v-60.586667a21.333333 21.333333 0 0 1 21.333334-21.333333h60.586666a21.333333 21.333333 0 0 1 0 42.666666z"  horiz-adv-x="1024" />

    
    <glyph glyph-name="weizhixiangyou" unicode="&#58942;" d="M163.413333 448a298.666667 298.666667 0 0 0 597.333334 0 21.333333 21.333333 0 0 1 42.666666 0 341.333333 341.333333 0 0 1-682.666666 0c0-231.68 315.733333-456.106667 328.96-465.493333a21.333333 21.333333 0 0 1 29.866666 5.12 21.333333 21.333333 0 0 1-5.12 29.866666c-5.12 2.133333-311.04 221.013333-311.04 430.506667zM462.08 608A160 160 0 0 1 407.04 597.333333a21.333333 21.333333 0 0 1 14.506667-40.106666 116.053333 116.053333 0 0 0 40.533333 7.253333 116.906667 116.906667 0 1 0-115.2-92.586667 21.333333 21.333333 0 1 1-42.666667 8.533334 163.413333 163.413333 0 0 1-3.413333-32 160 160 0 1 1 160 160zM901.973333 134.826667a20.906667 20.906667 0 0 1 0 11.093333v2.56a20.906667 20.906667 0 0 1-5.973333 9.386667L754.346667 298.666667a21.333333 21.333333 0 0 1-30.293334-30.293334l106.24-106.24h-229.546666a21.333333 21.333333 0 0 1 0-42.666666h229.973333L725.333333 14.933333a21.333333 21.333333 0 1 1 30.293334-30.293333L896 128a21.333333 21.333333 0 0 1 4.266667 6.826667z"  horiz-adv-x="1024" />

    
    <glyph glyph-name="weizhibiaoji" unicode="&#58943;" d="M213.333333 448a298.666667 298.666667 0 1 0 597.333334 0 21.333333 21.333333 0 0 1 42.666666 0 341.333333 341.333333 0 1 1-682.666666 0c0-231.68 315.733333-456.106667 328.96-465.493333a21.333333 21.333333 0 0 1 29.866666 5.12 21.333333 21.333333 0 0 1-5.12 29.866666C520.96 19.626667 213.333333 238.506667 213.333333 448zM512 608a160 160 0 0 1-55.04-10.666667 21.333333 21.333333 0 0 1 14.506667-40.106666 116.053333 116.053333 0 0 0 40.533333 8.106666 116.906667 116.906667 0 1 0-114.773333-93.44 21.333333 21.333333 0 1 1-42.666667 8.533334 163.413333 163.413333 0 0 1-3.413333-32A160 160 0 1 1 512 608zM842.666667 218.026667l-111.36 64.426666a20.906667 20.906667 0 0 1-14.08 5.546667 21.333333 21.333333 0 0 1-21.333334-21.333333v-245.333334h-34.986666a21.333333 21.333333 0 1 1 0-42.666666H810.666667a21.333333 21.333333 0 0 1 0 42.666666h-72.106667v99.84l104.106667 60.16a21.333333 21.333333 0 0 1 0 37.12zM738.56 170.666667v58.453333l50.773333-29.44z"  horiz-adv-x="1024" />

    
    <glyph glyph-name="weizhizhengque" unicode="&#58944;" d="M197.546667 448a298.666667 298.666667 0 1 0 597.333333 0 21.333333 21.333333 0 0 1 42.666667 0 341.333333 341.333333 0 1 1-682.666667 0c0-231.68 315.733333-456.106667 328.96-465.493333a21.333333 21.333333 0 0 1 29.866667 5.12 21.333333 21.333333 0 0 1-5.12 29.866666c-2.986667 2.133333-311.04 221.013333-311.04 430.506667zM364.8 497.066667a21.333333 21.333333 0 0 1-23.466667-17.066667 163.413333 163.413333 0 0 1-3.413333-32A160 160 0 1 1 441.173333 597.333333a21.333333 21.333333 0 0 1 14.506667-40.106666 116.053333 116.053333 0 0 0 40.533333 7.253333 116.906667 116.906667 0 1 0-114.773333-92.586667 21.333333 21.333333 0 0 1-16.64 25.173334zM892.16 234.666667a21.333333 21.333333 0 0 1-30.293333 0l-154.453334-154.453334-79.36 79.36A21.333333 21.333333 0 0 1 597.333333 128l94.72-94.72a21.333333 21.333333 0 0 1 30.293334 0l170.666666 170.666667a21.333333 21.333333 0 0 1-0.853333 30.72z"  horiz-adv-x="1024" />

    
    <glyph glyph-name="fanhui" unicode="&#58945;" d="M778.666667 405.333333H296.533333l220.586667 220.16a21.333333 21.333333 0 0 1-30.293333 30.293334l-256-256a21.333333 21.333333 0 0 1 14.933333-36.266667h532.906667a21.333333 21.333333 0 0 1 0 42.666667zM338.346667 320.426667a21.333333 21.333333 0 0 1-30.293334-30.293334l178.346667-178.346666a21.333333 21.333333 0 0 1 30.293333 30.293333z"  horiz-adv-x="1024" />

    
    <glyph glyph-name="qianjin" unicode="&#58946;" d="M418.986667 157.866667l226.133333 226.133333-226.133333 226.133333a21.333333 21.333333 0 0 0 30.293333 29.866667l241.493333-241.493333a21.333333 21.333333 0 0 0 0-30.293334L449.28 128a21.333333 21.333333 0 0 0-30.293333 30.293333z"  horiz-adv-x="1024" />

    


  </font>
</defs>
</svg>
